<svg width="27" height="32" viewBox="0 0 27 32" fill="none" xmlns="http://www.w3.org/2000/svg">
<path fill-rule="evenodd" clip-rule="evenodd" d="M6.67486 5.77558C6.63086 6.99034 6.86025 9.14109 10.0776 11.6838C12.7891 13.8269 15.1854 16.203 15.9028 19.2242C16.5398 21.9056 16.1358 29.6593 11.1892 26.8621C8.77085 25.4951 5.46322 22.9058 5.66748 19.0527C5.66748 19.0527 5.77028 18.0629 5.3052 18.0234C4.84147 17.9839 3.72457 23.1697 8.49521 27.2773C13.2645 31.3849 20.8907 30.6361 23.9541 28.2196C23.9541 28.2196 24.5624 27.684 24.7518 27.7608C24.8367 27.794 24.6885 28.3372 23.9204 28.9065C9.12908 39.8717 -9.75594 19.226 5.87129 5.34461C7.00974 4.33365 6.71167 4.75833 6.67486 5.77558Z" fill="#163A34"/>
<path fill-rule="evenodd" clip-rule="evenodd" d="M18.1384 1.14641C18.3175 2.52414 18.2865 4.97611 14.9048 8.03413C14.0604 8.79774 13.2497 9.5829 12.5139 10.4008C12.4565 10.4762 11.8957 11.2601 12.72 12.2028C13.4988 13.0948 18.9675 18.0831 17.5261 22.7052C17.1234 23.9976 17.7801 23.3709 18.1519 22.9876C19.8205 21.266 21.1102 18.9747 20.6963 16.1672C20.6963 16.1672 20.4754 15.0489 20.998 14.9784C21.521 14.9097 23.3404 20.738 18.3637 25.6541C17.8381 26.1731 17.2697 26.6319 16.6713 27.0345C16.6713 27.0345 16.4388 27.3142 16.6736 27.536C16.7234 27.5831 17.0834 27.6926 17.5427 27.4866C30.2609 21.7674 28.9712 8.35691 19.0044 0.614446C17.6046 -0.472381 17.9884 -0.00640725 18.1384 1.14641Z" fill="#FE9F6B"/>
</svg>
